<?xml version="1.0" encoding="utf-8"?>
<!-- Generator: Adobe Illustrator 16.0.0, SVG Export Plug-In . SVG Version: 6.00 Build 0)  -->
<!DOCTYPE svg PUBLIC "-//W3C//DTD SVG 1.1//EN" "http://www.w3.org/Graphics/SVG/1.1/DTD/svg11.dtd">
<svg version="1.1" id="圖層_1" xmlns="http://www.w3.org/2000/svg" xmlns:xlink="http://www.w3.org/1999/xlink" x="0px" y="0px"
	 width="25px" height="25px" fill="#fff" viewBox="0 0 30 30" enable-background="new 0 0 30 30" xml:space="preserve">
<g id="Capa_1">
	<g>
		<g>
			<circle cx="21.395" cy="24.41" r="2.324"/>
			<circle cx="11.064" cy="24.41" r="2.324"/>
			<path d="M24.857,21.764h-13.2c-1.107-0.003-3.53-0.023-3.53-0.023s-0.693-2.584-0.901-3.608l-2.88-13.7
				L0.492,4.428c-0.357,0-0.311-0.286-0.311-0.642s0.18-0.521,0.537-0.521H5.57l2.922,14.609c0.172,0.856,0.603,2.565,0.603,2.565
				s1.899,0.029,2.562,0.031l13.212-0.09L24.857,21.764z"/>
		</g>
		<path d="M24.869,16.828c-3.121,0-5.652-2.53-5.652-5.65c0-3.121,2.531-5.651,5.652-5.651
			c1.115,0,2.148,0.334,3.023,0.892l0.717-3.152H6.719L10.063,19.5h15l0.483-2.739C25.322,16.785,25.102,16.828,24.869,16.828z"/>
		<g>
			<path d="M24.871,6.227c-2.736,0-4.951,2.217-4.951,4.951c0,2.732,2.217,4.95,4.951,4.95
				c2.732,0,4.949-2.218,4.949-4.95C29.82,8.443,27.604,6.227,24.871,6.227z M26.754,11.809h-1.35v1.35
				c0,0.249-0.203,0.45-0.451,0.45s-0.449-0.201-0.449-0.45v-1.35h-1.352c-0.248,0-0.451-0.201-0.451-0.45s0.203-0.45,0.451-0.45
				h1.352V9.558c0-0.247,0.201-0.45,0.449-0.45s0.451,0.201,0.451,0.45v1.351h1.35c0.25,0,0.451,0.201,0.451,0.45
				S27.004,11.809,26.754,11.809z"/>
		</g>
	</g>
</g>
</svg>
