<?xml version="1.0" encoding="utf-8"?>
<!-- Generator: Adobe Illustrator 16.0.0, SVG Export Plug-In . SVG Version: 6.00 Build 0)  -->
<!DOCTYPE svg PUBLIC "-//W3C//DTD SVG 1.1//EN" "http://www.w3.org/Graphics/SVG/1.1/DTD/svg11.dtd">
<svg version="1.1" id="Layer_1" xmlns="http://www.w3.org/2000/svg" xmlns:xlink="http://www.w3.org/1999/xlink" x="0px" y="0px"
	 width="25px" height="25px" fill="#fff" viewBox="0 0 27 27" enable-background="new 0 0 27 27" xml:space="preserve">
<path d="M5.083,9.167v16.125h17.042V9.167H5.083z M8.438,13.458c-0.84,0-1.521-0.681-1.521-1.521
	c0-0.84,0.681-1.521,1.521-1.521c0.84,0,1.521,0.681,1.521,1.521C9.958,12.777,9.277,13.458,8.438,13.458z M18.563,13.458
	c-0.84,0-1.521-0.681-1.521-1.521s0.682-1.521,1.521-1.521s1.521,0.681,1.521,1.521S19.402,13.458,18.563,13.458z"/>
<path d="M20.534,7.474H19.54V6.04C19.539,2.709,16.83,0,13.5,0S7.46,2.709,7.46,6.04v1.435H6.466
	c-1.616,0-2.932,1.315-2.932,2.932v13.663C3.534,25.686,4.85,27,6.466,27h14.067c1.617,0,2.932-1.314,2.932-2.932V10.406
	C23.465,8.789,22.15,7.474,20.534,7.474z M9.373,6.04c0-2.276,1.852-4.127,4.127-4.127c2.275,0,4.127,1.851,4.127,4.127v1.435H9.373
	V6.04z M21.553,24.068c0,0.563-0.457,1.02-1.019,1.02H6.466c-0.562,0-1.019-0.457-1.019-1.02V10.406
	c0-0.562,0.457-1.019,1.019-1.019H7.46v0.979c0.134-0.032,0.271-0.054,0.415-0.054h1.498V9.387h8.254v0.926h1.404
	c0.178,0,0.346,0.034,0.508,0.083V9.387h0.994c0.563,0,1.02,0.457,1.02,1.019V24.068z"/>
</svg>
