<?xml version="1.0" encoding="utf-8"?>
<!-- Generator: Adobe Illustrator 16.0.0, SVG Export Plug-In . SVG Version: 6.00 Build 0)  -->
<!DOCTYPE svg PUBLIC "-//W3C//DTD SVG 1.1//EN" "http://www.w3.org/Graphics/SVG/1.1/DTD/svg11.dtd">
<svg version="1.1" id="Capa_1" xmlns="http://www.w3.org/2000/svg" xmlns:xlink="http://www.w3.org/1999/xlink" x="0px" y="0px"
	 width="27" height="27" fill="#cccccc" viewBox="0 0 35 35" enable-background="new 0 0 35 35" xml:space="preserve">
<g>
	<g>
		<path d="M4.154,25.221c0,2.433,1.979,4.412,4.412,4.412c2.433,0,4.412-1.979,4.412-4.412s-1.979-4.412-4.412-4.412
			C6.133,20.809,4.154,22.788,4.154,25.221z M6.36,25.221c0-1.217,0.989-2.206,2.206-2.206s2.205,0.989,2.205,2.206
			s-0.988,2.205-2.205,2.205S6.36,26.438,6.36,25.221z"/>
	</g>
</g>
<g>
	<g>
		<path d="M19.229,25.221c0,2.433,1.979,4.412,4.411,4.412s4.411-1.979,4.411-4.412s-1.979-4.412-4.411-4.412
			S19.229,22.788,19.229,25.221z M21.434,25.221c0-1.217,0.99-2.206,2.206-2.206c1.217,0,2.206,0.989,2.206,2.206
			s-0.989,2.205-2.206,2.205C22.424,27.426,21.434,26.438,21.434,25.221z"/>
	</g>
</g>
<g>
	<g>
		<path d="M2.287,14.762l1.971,0.991l3.004-5.974h5.128V7.574H6.581c-0.417,0-0.798,0.235-0.985,0.607L2.287,14.762z"/>
	</g>
</g>
<g>
	<g>
		<rect x="11.875" y="24.154" width="8.346" height="2.206"/>
	</g>
</g>
<g>
	<g>
		<path d="M25.846,25.258c0,0.609,0.494,1.103,1.103,1.103h3.823c0.609,0,1.104-0.493,1.104-1.103s-0.494-1.104-1.104-1.104h-3.822
			C26.34,24.154,25.846,24.648,25.846,25.258z"/>
	</g>
</g>
<g>
	<g>
		<path d="M0,18.088v7.17c0,0.608,0.494,1.103,1.104,1.103h4.154c0.609,0,1.103-0.494,1.103-1.103c0-0.609-0.493-1.104-1.103-1.104
			H2.206v-5.688l1.606-2.07h8.577c0.609,0,1.103-0.494,1.103-1.103V7.573h17.279c0.609,0,1.104-0.494,1.104-1.103
			c0-0.609-0.494-1.103-1.104-1.103H12.39c-0.609,0-1.103,0.494-1.103,1.103v7.72H3.271c-0.34,0-0.662,0.158-0.871,0.427
			l-2.169,2.794C0.082,17.605,0,17.843,0,18.088z"/>
	</g>
</g>
<g>
	<g>
		<path d="M25.92,19.669c0,0.609,0.493,1.103,1.102,1.103h5.074c0.609,0,1.104-0.493,1.104-1.103c0-0.608-0.494-1.103-1.104-1.103
			h-5.074C26.413,18.566,25.919,19.061,25.92,19.669z"/>
	</g>
</g>
<g>
	<g>
		<path d="M23.383,15.331c0,0.609,0.493,1.103,1.103,1.103h9.411c0.609,0,1.104-0.494,1.104-1.103c0-0.609-0.494-1.103-1.104-1.103
			h-9.411C23.876,14.228,23.383,14.722,23.383,15.331z"/>
	</g>
</g>
<g>
	<g>
		<path d="M21.581,10.993c0,0.609,0.493,1.103,1.103,1.103h9.412c0.609,0,1.104-0.494,1.104-1.103S32.705,9.89,32.096,9.89h-9.412
			C22.074,9.89,21.581,10.383,21.581,10.993z"/>
	</g>
</g>
</svg>
