<?xml version="1.0" encoding="utf-8"?>
<!-- Generator: Adobe Illustrator 16.0.0, SVG Export Plug-In . SVG Version: 6.00 Build 0)  -->
<!DOCTYPE svg PUBLIC "-//W3C//DTD SVG 1.1//EN" "http://www.w3.org/Graphics/SVG/1.1/DTD/svg11.dtd">
<svg version="1.1" xmlns="http://www.w3.org/2000/svg" xmlns:xlink="http://www.w3.org/1999/xlink" x="0px" y="0px" width="35px"
	 height="35px" viewBox="0 0 35 35" enable-background="new 0 0 35 35" xml:space="preserve">
<g id="圖層_1">
	<circle display="none" fill="#2DB3E9" cx="17.5" cy="17.5" r="16.653"/>
	<path display="none" fill="#FFFFFF" d="M17.5,6.387c-6.393,0-11.596,4.25-11.596,9.473c0,4.677,4.126,8.597,9.697,9.343
		c0.377,0.08,0.892,0.25,1.021,0.572c0.116,0.295,0.076,0.746,0.037,1.051l-0.158,0.992c-0.044,0.293-0.232,1.152,1.014,0.627
		c1.247-0.523,6.683-3.967,9.117-6.783c1.666-1.836,2.462-3.717,2.462-5.802C29.095,10.637,23.892,6.387,17.5,6.387L17.5,6.387z
		 M12.961,18.967h-2.305c-0.333,0-0.609-0.277-0.609-0.611v-4.641c0-0.335,0.276-0.611,0.609-0.611c0.336,0,0.608,0.276,0.608,0.611
		v4.027h1.697c0.336,0,0.607,0.275,0.607,0.613C13.568,18.689,13.297,18.967,12.961,18.967z M15.344,18.355
		c0,0.334-0.272,0.611-0.609,0.611c-0.334,0-0.605-0.277-0.605-0.611v-4.641c0-0.335,0.271-0.611,0.607-0.611
		c0.335,0,0.607,0.276,0.607,0.611V18.355z M20.892,18.355c0,0.262-0.168,0.494-0.418,0.578c-0.062,0.02-0.128,0.031-0.192,0.031
		c-0.203,0-0.377-0.09-0.492-0.244l-2.361-3.227v2.859c0,0.334-0.27,0.611-0.609,0.611c-0.334,0-0.605-0.277-0.605-0.611v-4.639
		c0-0.263,0.168-0.496,0.416-0.578c0.059-0.023,0.132-0.031,0.188-0.031c0.188,0,0.363,0.1,0.479,0.246l2.379,3.238v-2.875
		c0-0.335,0.272-0.611,0.609-0.611c0.332,0,0.608,0.276,0.608,0.611V18.355z M24.616,15.422c0.338,0,0.609,0.277,0.609,0.613
		s-0.271,0.613-0.609,0.613H22.92v1.094h1.696c0.338,0,0.609,0.275,0.609,0.613c0,0.334-0.271,0.611-0.609,0.611h-2.306
		c-0.333,0-0.605-0.277-0.605-0.611v-4.641c0-0.335,0.272-0.611,0.608-0.611h2.306c0.335,0,0.606,0.276,0.606,0.611
		c0,0.34-0.271,0.613-0.609,0.613H22.92v1.094H24.616z"/>
	<path display="none" fill="#FFFFFF" d="M17.5,7c-2.851,0-3.209,0.012-4.328,0.063c-1.118,0.05-1.885,0.226-2.551,0.49
		C9.932,7.82,9.347,8.179,8.763,8.763c-0.584,0.584-0.943,1.17-1.211,1.858c-0.264,0.667-0.44,1.433-0.49,2.55
		C7.011,14.291,7,14.649,7,17.5c0,2.852,0.011,3.203,0.062,4.328c0.051,1.123,0.227,1.885,0.49,2.545
		c0.268,0.694,0.626,1.285,1.211,1.864c0.583,0.59,1.169,0.943,1.857,1.21c0.667,0.265,1.433,0.434,2.551,0.491
		c1.119,0.045,1.478,0.063,4.328,0.063c2.851,0,3.204-0.018,4.328-0.063c1.111-0.058,1.886-0.227,2.546-0.491
		c0.694-0.267,1.272-0.62,1.863-1.21c0.577-0.579,0.943-1.17,1.211-1.864c0.264-0.66,0.433-1.422,0.49-2.545
		C27.982,20.703,28,20.352,28,17.5c0-2.851-0.018-3.209-0.063-4.329c-0.058-1.117-0.227-1.884-0.49-2.55
		c-0.268-0.688-0.634-1.274-1.211-1.858c-0.591-0.584-1.169-0.942-1.863-1.21c-0.661-0.264-1.435-0.44-2.546-0.49
		C20.702,7.012,20.351,7,17.5,7L17.5,7z M16.557,8.896c0.278-0.007,0.594,0,0.943,0c2.808,0,3.138,0.004,4.244,0.055
		C22.769,9,23.323,9.173,23.693,9.316c0.491,0.188,0.84,0.414,1.209,0.781c0.368,0.369,0.595,0.719,0.781,1.209
		c0.144,0.369,0.311,0.925,0.366,1.948c0.045,1.108,0.063,1.444,0.063,4.244c0,2.794-0.018,3.138-0.063,4.244
		c-0.056,1.023-0.223,1.579-0.366,1.948c-0.186,0.492-0.413,0.841-0.781,1.208c-0.369,0.356-0.718,0.595-1.209,0.782
		c-0.37,0.145-0.925,0.311-1.949,0.366c-1.106,0.045-1.437,0.049-4.244,0.049c-2.801,0-3.137-0.004-4.244-0.049
		c-1.025-0.056-1.579-0.223-1.949-0.366c-0.492-0.188-0.841-0.426-1.209-0.782c-0.363-0.369-0.595-0.718-0.782-1.208
		C9.172,23.322,9,22.767,8.95,21.743c-0.045-1.108-0.055-1.45-0.055-4.251c0-2.801,0.01-3.13,0.055-4.238
		C9,12.23,9.172,11.676,9.316,11.305c0.187-0.491,0.419-0.84,0.782-1.209c0.368-0.368,0.717-0.595,1.209-0.787
		c0.369-0.145,0.924-0.311,1.949-0.361c0.971-0.042,1.343-0.06,3.301-0.06V8.896z M23.101,10.639c-0.695,0-1.254,0.564-1.254,1.261
		c0,0.69,0.559,1.254,1.254,1.254c0.698,0,1.269-0.564,1.269-1.254C24.369,11.203,23.799,10.639,23.101,10.639L23.101,10.639z
		 M17.5,12.107c-2.975,0-5.393,2.418-5.393,5.393c0,2.976,2.418,5.394,5.393,5.394c2.975,0,5.394-2.418,5.394-5.394
		C22.894,14.525,20.475,12.107,17.5,12.107L17.5,12.107z M17.5,14.002c1.931,0,3.505,1.569,3.505,3.498
		c0,1.931-1.574,3.505-3.505,3.505c-1.93,0-3.498-1.574-3.498-3.505C14.002,15.571,15.57,14.002,17.5,14.002z"/>
	<g display="none">
		<g display="inline">
			<path fill="#FFFFFF" d="M18.011,18.846l-0.891-0.687c-0.279-0.228-0.65-0.524-0.65-1.072c0-0.547,0.371-0.891,0.705-1.215
				c1.034-0.816,2.065-1.683,2.065-3.517c0-1.883-1.177-2.876-1.749-3.349h1.53L20.626,8h-4.861c-1.337,0-3.266,0.318-4.676,1.479
				c-1.071,0.919-1.586,2.181-1.586,3.321c0,1.93,1.481,3.888,4.109,3.888c0.242,0,0.52-0.019,0.782-0.047
				c-0.114,0.297-0.243,0.548-0.243,0.965c0,0.774,0.389,1.239,0.742,1.685c-1.113,0.074-3.191,0.203-4.728,1.15
				c-1.454,0.855-1.9,2.122-1.9,3.018c0,1.825,1.73,3.541,5.314,3.541c4.255,0,6.509-2.348,6.509-4.686
				C20.089,20.607,19.104,19.766,18.011,18.846z M14.767,16c-2.119,0-3.084-2.754-3.084-4.415c0-0.641,0.116-1.309,0.539-1.83
				c0.394-0.5,1.094-0.824,1.729-0.824c2.056,0,3.112,2.778,3.112,4.565c0,0.445-0.037,1.233-0.611,1.809
				C16.055,15.705,15.394,16,14.767,16z M14.8,25.966c-2.652,0-4.355-1.276-4.355-3.029s1.577-2.347,2.129-2.552
				c1.039-0.352,2.375-0.391,2.598-0.391c0.242,0,0.371,0,0.557,0.02c1.893,1.336,2.709,2.004,2.709,3.266
				C18.437,24.82,17.175,25.966,14.8,25.966z"/>
			<polygon fill="#FFFFFF" points="24.25,15.96 24.25,13.481 23.031,13.481 23.031,15.96 20.552,15.96 20.552,17.198 23.031,17.198 
				23.031,19.692 24.25,19.692 24.25,17.198 26.734,17.198 26.734,15.96 			"/>
		</g>
	</g>
	<g display="none">
		<path id="f_1_" display="inline" fill="#FFFFFF" d="M19.289,29.055V18.514h3.537l0.529-4.109h-4.066v-2.623
			c0-1.188,0.328-2,2.037-2L23.5,9.781V6.106c-0.377-0.05-1.668-0.162-3.17-0.162c-3.136,0-5.283,1.914-5.283,5.429v3.031H11.5
			v4.109h3.548v10.541H19.289z"/>
	</g>
	<g display="none">
		<g display="inline">
			<path fill="#FFFFFF" d="M28.5,10.679c-0.819,0.36-1.687,0.596-2.599,0.714c0.934-0.558,1.646-1.439,1.986-2.493
				c-0.877,0.517-1.837,0.884-2.858,1.089c-0.835-0.881-2.014-1.426-3.3-1.426c-2.5,0-4.504,2.025-4.504,4.511
				c0,0.359,0.027,0.703,0.103,1.027c-3.749-0.183-7.067-1.977-9.297-4.716c-0.387,0.677-0.616,1.45-0.616,2.279
				c0,1.564,0.804,2.949,2.001,3.748c-0.722-0.011-1.435-0.223-2.037-0.554c0,0.016,0,0.031,0,0.049
				c0,2.197,1.564,4.014,3.616,4.431c-0.368,0.104-0.77,0.15-1.183,0.15c-0.289,0-0.581-0.021-0.857-0.078
				c0.587,1.787,2.244,3.102,4.215,3.145c-1.533,1.199-3.483,1.918-5.591,1.918c-0.37,0-0.725-0.015-1.08-0.062
				c1.998,1.289,4.367,2.027,6.919,2.027c8.303,0,12.836-6.875,12.836-12.833c0-0.203-0.003-0.395-0.018-0.585
				C27.136,12.384,27.888,11.591,28.5,10.679z"/>
		</g>
	</g>
	<g display="none">
		<g display="inline">
			<path fill="#FFFFFF" d="M26.123,25.752c0.472,0,0.882-0.161,1.23-0.469l-5.947-5.947c-0.143,0.103-0.287,0.205-0.41,0.289
				c-0.451,0.328-0.812,0.593-1.086,0.777c-0.283,0.185-0.652,0.369-1.107,0.554c-0.465,0.197-0.893,0.287-1.292,0.287H17.5h-0.01
				c-0.4,0-0.829-0.09-1.292-0.287c-0.458-0.185-0.827-0.369-1.107-0.554c-0.275-0.185-0.636-0.449-1.085-0.777
				c-0.124-0.084-0.261-0.187-0.409-0.289l-5.95,5.947c0.346,0.308,0.754,0.469,1.227,0.469H26.123z"/>
			<path fill="#FFFFFF" d="M8.185,15.586C7.739,15.291,7.343,14.952,7,14.567v9.055l5.245-5.25
				C11.196,17.643,9.845,16.71,8.185,15.586z"/>
			<path fill="#FFFFFF" d="M26.823,15.586c-1.591,1.083-2.952,2.006-4.063,2.786l5.24,5.25v-9.055
				C27.661,14.942,27.271,15.28,26.823,15.586z"/>
			<path fill="#FFFFFF" d="M26.123,9.25H8.873c-0.597,0-1.062,0.2-1.386,0.606C7.159,10.265,7,10.769,7,11.382
				c0,0.492,0.214,1.025,0.642,1.6c0.429,0.574,0.891,1.025,1.372,1.353c0.267,0.187,1.066,0.74,2.401,1.668
				c0.726,0.502,1.352,0.933,1.89,1.31c0.456,0.321,0.859,0.602,1.186,0.834c0.034,0.021,0.091,0.062,0.168,0.123
				c0.083,0.062,0.196,0.137,0.328,0.226c0.248,0.185,0.466,0.333,0.636,0.451c0.164,0.11,0.369,0.243,0.606,0.379
				c0.235,0.136,0.46,0.247,0.67,0.318c0.218,0.063,0.405,0.103,0.59,0.103h0.011h0.009c0.185,0,0.374-0.039,0.592-0.103
				c0.208-0.071,0.433-0.182,0.67-0.318c0.235-0.136,0.44-0.269,0.604-0.379c0.17-0.118,0.389-0.267,0.635-0.451
				c0.134-0.089,0.246-0.164,0.328-0.226c0.081-0.062,0.136-0.103,0.168-0.123c0.264-0.185,0.652-0.454,1.186-0.826
				c0.979-0.676,2.402-1.672,4.307-2.985c0.57-0.398,1.046-0.88,1.427-1.444C27.805,12.327,28,11.743,28,11.123
				c0-0.518-0.188-0.959-0.562-1.327C27.066,9.432,26.636,9.25,26.123,9.25z"/>
		</g>
	</g>
	<path fill="#FFFFFF" d="M24.664,20.136c-0.76-0.748-1.708-0.748-2.461,0c-0.576,0.573-1.151,1.144-1.718,1.723
		c-0.154,0.161-0.287,0.191-0.472,0.084c-0.372-0.201-0.771-0.366-1.129-0.588c-1.666-1.051-3.063-2.396-4.304-3.914
		c-0.614-0.756-1.157-1.563-1.54-2.471c-0.078-0.184-0.063-0.305,0.086-0.456c0.574-0.556,1.138-1.125,1.7-1.696
		c0.792-0.792,0.792-1.721-0.002-2.519c-0.45-0.454-0.901-0.899-1.35-1.353c-0.462-0.464-0.921-0.933-1.391-1.392
		c-0.759-0.74-1.707-0.74-2.46,0.004c-0.58,0.571-1.136,1.156-1.727,1.717c-0.546,0.518-0.822,1.15-0.879,1.89
		c-0.092,1.203,0.203,2.34,0.619,3.447c0.851,2.29,2.146,4.328,3.717,6.193c2.121,2.523,4.657,4.52,7.616,5.959
		c1.334,0.648,2.722,1.146,4.222,1.229c1.035,0.058,1.934-0.205,2.655-1.011c0.493-0.552,1.05-1.054,1.571-1.581
		c0.772-0.783,0.777-1.732,0.01-2.502C26.51,21.975,25.586,21.057,24.664,20.136z"/>
	<g>
	</g>
	<g>
	</g>
	<g>
	</g>
	<g>
	</g>
	<g>
	</g>
	<g>
	</g>
</g>
</svg>
