<?xml version="1.0" encoding="utf-8"?>
<!-- Generator: Adobe Illustrator 16.0.0, SVG Export Plug-In . SVG Version: 6.00 Build 0)  -->
<!DOCTYPE svg PUBLIC "-//W3C//DTD SVG 1.1//EN" "http://www.w3.org/Graphics/SVG/1.1/DTD/svg11.dtd">
<svg version="1.1" id="圖層_1" xmlns="http://www.w3.org/2000/svg" xmlns:xlink="http://www.w3.org/1999/xlink" x="0px" y="0px"
	 width="35px" height="35px" viewBox="0 0 35 35" enable-background="new 0 0 35 35" xml:space="preserve">
<g>
	<g>
		<path fill="#FFFFFF" d="M26.123,25.752c0.473,0,0.882-0.161,1.23-0.469l-5.947-5.947c-0.143,0.104-0.287,0.205-0.41,0.289
			c-0.451,0.328-0.813,0.594-1.086,0.777c-0.283,0.185-0.652,0.369-1.107,0.554c-0.465,0.196-0.893,0.287-1.292,0.287H17.5h-0.01
			c-0.4,0-0.829-0.091-1.292-0.287c-0.458-0.185-0.827-0.369-1.107-0.554c-0.275-0.186-0.636-0.449-1.085-0.777
			c-0.124-0.084-0.261-0.188-0.409-0.289l-5.95,5.947c0.346,0.308,0.754,0.469,1.227,0.469H26.123z"/>
		<path fill="#FFFFFF" d="M8.185,15.586C7.739,15.291,7.343,14.952,7,14.567v9.055l5.245-5.25
			C11.196,17.643,9.845,16.71,8.185,15.586z"/>
		<path fill="#FFFFFF" d="M26.823,15.586c-1.591,1.083-2.952,2.006-4.063,2.786l5.24,5.25v-9.055
			C27.661,14.942,27.271,15.28,26.823,15.586z"/>
		<path fill="#FFFFFF" d="M26.123,9.25H8.873c-0.597,0-1.062,0.2-1.386,0.606C7.159,10.265,7,10.769,7,11.382
			c0,0.492,0.214,1.025,0.642,1.6c0.429,0.574,0.891,1.025,1.372,1.353c0.267,0.187,1.066,0.74,2.401,1.668
			c0.726,0.502,1.352,0.933,1.89,1.31c0.456,0.321,0.859,0.602,1.186,0.833c0.034,0.021,0.091,0.063,0.168,0.123
			c0.083,0.063,0.196,0.137,0.328,0.227c0.248,0.186,0.466,0.333,0.636,0.451c0.164,0.109,0.369,0.242,0.606,0.379
			c0.235,0.136,0.46,0.246,0.67,0.318c0.218,0.063,0.405,0.103,0.59,0.103H17.5h0.009c0.185,0,0.374-0.039,0.593-0.103
			c0.207-0.072,0.433-0.183,0.67-0.318c0.234-0.137,0.439-0.27,0.604-0.379c0.17-0.118,0.389-0.268,0.635-0.451
			c0.135-0.09,0.246-0.164,0.328-0.227c0.081-0.062,0.137-0.103,0.168-0.123c0.264-0.185,0.652-0.454,1.186-0.826
			c0.979-0.676,2.402-1.672,4.308-2.985c0.569-0.398,1.046-0.88,1.427-1.444C27.805,12.327,28,11.743,28,11.123
			c0-0.518-0.188-0.959-0.563-1.327C27.066,9.432,26.637,9.25,26.123,9.25z"/>
	</g>
</g>
<path display="none" fill="#FFFFFF" d="M24.664,20.137c-0.76-0.748-1.708-0.748-2.461,0c-0.576,0.572-1.151,1.143-1.719,1.723
	c-0.153,0.16-0.286,0.19-0.471,0.084c-0.373-0.201-0.771-0.366-1.13-0.588c-1.666-1.051-3.063-2.396-4.304-3.915
	c-0.614-0.756-1.157-1.563-1.54-2.471c-0.078-0.184-0.063-0.305,0.086-0.456c0.574-0.556,1.138-1.125,1.7-1.696
	c0.792-0.792,0.792-1.721-0.002-2.519c-0.45-0.454-0.901-0.899-1.35-1.353c-0.462-0.464-0.921-0.933-1.391-1.392
	c-0.759-0.74-1.707-0.74-2.46,0.004c-0.58,0.571-1.136,1.156-1.727,1.717c-0.546,0.518-0.822,1.15-0.879,1.89
	c-0.092,1.203,0.203,2.34,0.619,3.447c0.851,2.29,2.146,4.328,3.717,6.193c2.121,2.523,4.657,4.521,7.616,5.959
	c1.334,0.648,2.723,1.146,4.223,1.229c1.035,0.058,1.934-0.205,2.654-1.011c0.493-0.553,1.051-1.055,1.571-1.582
	c0.772-0.782,0.776-1.731,0.01-2.502C26.51,21.975,25.586,21.057,24.664,20.137z"/>
</svg>
