<?xml version="1.0" encoding="utf-8"?>
<!-- Generator: Adobe Illustrator 17.0.0, SVG Export Plug-In . SVG Version: 6.00 Build 0)  -->
<!DOCTYPE svg PUBLIC "-//W3C//DTD SVG 1.1//EN" "http://www.w3.org/Graphics/SVG/1.1/DTD/svg11.dtd">
<svg version="1.1" id="圖層_1" xmlns="http://www.w3.org/2000/svg" xmlns:xlink="http://www.w3.org/1999/xlink" x="0px" y="0px"
	 width="30px" height="30px" fill="#fff" viewBox="0 0 30 30" enable-background="new 0 0 30 30" xml:space="preserve">
<g>
	<g>
		<path d="M25.418,5.625H4.583C3.433,5.625,2.5,6.56,2.5,7.708v14.584c0,1.15,0.935,2.083,2.083,2.083h20.834
			c1.15,0,2.083-0.935,2.083-2.083V7.708C27.501,6.558,26.567,5.625,25.418,5.625z M4.583,6.667h20.834
			c0.076,0,0.144,0.028,0.217,0.044c-1.804,1.651-7.785,7.122-9.878,9.009c-0.163,0.147-0.428,0.324-0.755,0.324
			s-0.592-0.176-0.757-0.324c-2.092-1.885-8.074-7.357-9.878-9.007C4.439,6.695,4.507,6.667,4.583,6.667z M3.541,22.292V7.708
			c0-0.102,0.031-0.195,0.059-0.287c1.381,1.263,5.554,5.08,8.26,7.542c-2.697,2.317-6.871,6.274-8.262,7.601
			C3.572,22.475,3.541,22.388,3.541,22.292z M25.418,23.333H4.583c-0.083,0-0.158-0.029-0.235-0.048
			c1.437-1.37,5.638-5.351,8.289-7.618c0.345,0.313,0.66,0.599,0.91,0.824c0.429,0.388,0.932,0.592,1.453,0.592
			c0.521,0,1.024-0.205,1.453-0.592c0.249-0.225,0.566-0.509,0.91-0.824c2.65,2.266,6.851,6.248,8.289,7.618
			C25.575,23.305,25.501,23.333,25.418,23.333z M26.46,22.292c0,0.096-0.031,0.183-0.055,0.271
			c-1.392-1.328-5.566-5.285-8.262-7.601c2.706-2.461,6.879-6.278,8.26-7.542c0.028,0.094,0.059,0.186,0.059,0.289v14.582H26.46z"/>
	</g>
</g>
</svg>
