<?xml version="1.0" encoding="utf-8"?>
<!-- Generator: Adobe Illustrator 16.0.0, SVG Export Plug-In . SVG Version: 6.00 Build 0)  -->
<!DOCTYPE svg PUBLIC "-//W3C//DTD SVG 1.1//EN" "http://www.w3.org/Graphics/SVG/1.1/DTD/svg11.dtd">
<svg version="1.1" id="圖層_1" xmlns="http://www.w3.org/2000/svg" xmlns:xlink="http://www.w3.org/1999/xlink" x="0px" y="0px"
	 width="35px" height="35px" viewBox="0 0 35 35" enable-background="new 0 0 35 35" xml:space="preserve">
<circle fill="#2DB3E9" cx="17.5" cy="17.5" r="16.653"/>
<g>
	<g>
		<path fill="#FFFFFF" d="M28.5,10.679c-0.818,0.36-1.688,0.596-2.6,0.714c0.935-0.558,1.646-1.439,1.986-2.493
			c-0.877,0.517-1.837,0.884-2.857,1.089c-0.836-0.881-2.014-1.426-3.301-1.426c-2.5,0-4.503,2.025-4.503,4.511
			c0,0.359,0.027,0.703,0.103,1.027c-3.749-0.183-7.067-1.977-9.297-4.716c-0.387,0.677-0.616,1.45-0.616,2.279
			c0,1.564,0.804,2.949,2.001,3.748c-0.722-0.011-1.435-0.223-2.037-0.554c0,0.016,0,0.031,0,0.049c0,2.197,1.564,4.014,3.616,4.431
			c-0.368,0.104-0.77,0.15-1.183,0.15c-0.289,0-0.581-0.021-0.857-0.078c0.587,1.787,2.244,3.102,4.215,3.145
			c-1.533,1.199-3.483,1.918-5.591,1.918c-0.37,0-0.725-0.015-1.08-0.062c1.998,1.289,4.367,2.026,6.919,2.026
			c8.303,0,12.836-6.875,12.836-12.833c0-0.203-0.003-0.395-0.018-0.585C27.136,12.384,27.889,11.591,28.5,10.679z"/>
	</g>
</g>
</svg>
