<?xml version="1.0" encoding="utf-8"?>
<!-- Generator: Adobe Illustrator 16.0.0, SVG Export Plug-In . SVG Version: 6.00 Build 0)  -->
<!DOCTYPE svg PUBLIC "-//W3C//DTD SVG 1.1//EN" "http://www.w3.org/Graphics/SVG/1.1/DTD/svg11.dtd">
<svg version="1.1" id="圖層_1" xmlns="http://www.w3.org/2000/svg" xmlns:xlink="http://www.w3.org/1999/xlink" x="0px" y="0px"
	 width="35px" height="35px" viewBox="0 0 35 35" enable-background="new 0 0 35 35" xml:space="preserve">
<circle fill="#50B233" cx="17.5" cy="17.5" r="16.653"/>
<path fill="#FFFFFF" d="M17.5,6.387c-6.393,0-11.596,4.25-11.596,9.473c0,4.677,4.126,8.597,9.697,9.343
	c0.377,0.08,0.892,0.25,1.021,0.572c0.116,0.295,0.076,0.746,0.037,1.051l-0.158,0.992c-0.044,0.293-0.232,1.152,1.014,0.627
	c1.247-0.523,6.683-3.967,9.117-6.783c1.666-1.836,2.462-3.717,2.462-5.802C29.095,10.637,23.892,6.387,17.5,6.387L17.5,6.387z
	 M12.961,18.967h-2.305c-0.333,0-0.609-0.277-0.609-0.611v-4.641c0-0.335,0.276-0.611,0.609-0.611c0.336,0,0.608,0.276,0.608,0.611
	v4.027h1.697c0.336,0,0.607,0.275,0.607,0.613C13.568,18.689,13.297,18.967,12.961,18.967z M15.344,18.355
	c0,0.334-0.272,0.611-0.609,0.611c-0.334,0-0.605-0.277-0.605-0.611v-4.641c0-0.335,0.271-0.611,0.607-0.611
	c0.335,0,0.607,0.276,0.607,0.611V18.355z M20.892,18.355c0,0.262-0.168,0.494-0.418,0.578c-0.062,0.02-0.128,0.031-0.192,0.031
	c-0.203,0-0.377-0.09-0.492-0.244l-2.361-3.227v2.859c0,0.334-0.27,0.611-0.609,0.611c-0.334,0-0.605-0.277-0.605-0.611v-4.639
	c0-0.263,0.168-0.496,0.416-0.578c0.059-0.023,0.132-0.031,0.188-0.031c0.188,0,0.363,0.1,0.479,0.246l2.379,3.238v-2.875
	c0-0.335,0.272-0.611,0.609-0.611c0.332,0,0.608,0.276,0.608,0.611V18.355z M24.616,15.422c0.338,0,0.609,0.277,0.609,0.613
	s-0.271,0.613-0.609,0.613H22.92v1.094h1.696c0.338,0,0.609,0.275,0.609,0.613c0,0.334-0.271,0.611-0.609,0.611h-2.306
	c-0.333,0-0.605-0.277-0.605-0.611v-4.641c0-0.335,0.272-0.611,0.608-0.611h2.306c0.335,0,0.606,0.276,0.606,0.611
	c0,0.34-0.271,0.613-0.609,0.613H22.92v1.094H24.616z"/>
<g>
</g>
<g>
</g>
<g>
</g>
<g>
</g>
<g>
</g>
<g>
</g>
</svg>
