<?xml version="1.0" encoding="utf-8"?>
<!-- Generator: Adobe Illustrator 16.0.0, SVG Export Plug-In . SVG Version: 6.00 Build 0)  -->
<!DOCTYPE svg PUBLIC "-//W3C//DTD SVG 1.1//EN" "http://www.w3.org/Graphics/SVG/1.1/DTD/svg11.dtd">
<svg version="1.1" id="圖層_1" xmlns="http://www.w3.org/2000/svg" xmlns:xlink="http://www.w3.org/1999/xlink" x="0px" y="0px"
	 width="35px" height="35px" viewBox="0 0 35 35" enable-background="new 0 0 35 35" xml:space="preserve">
<g id="圖層_2">
	<g>
		<defs>
			<circle id="SVGID_1_" cx="17.352" cy="17.5" r="16.653"/>
		</defs>
		<clipPath id="SVGID_2_">
			<use xlink:href="#SVGID_1_"  overflow="visible"/>
		</clipPath>
		
			<radialGradient id="SVGID_3_" cx="-176.9658" cy="1015.9209" r="23.0517" gradientTransform="matrix(0 -1.4618 1.36 0 -1372.2582 -221.5676)" gradientUnits="userSpaceOnUse">
			<stop  offset="0" style="stop-color:#F6D65A"/>
			<stop  offset="0.1" style="stop-color:#F6D65A"/>
			<stop  offset="0.5" style="stop-color:#EA5541"/>
			<stop  offset="1" style="stop-color:#B14193"/>
		</radialGradient>
		<path clip-path="url(#SVGID_2_)" fill="url(#SVGID_3_)" d="M17.362,0.5c-7.11,0-9.187,0.007-9.585,0.043
			C6.315,0.667,5.418,0.899,4.422,1.38C3.66,1.762,3.06,2.194,2.476,2.809C1.398,3.938,0.735,5.317,0.502,6.946
			c-0.117,0.796-0.15,0.962-0.15,5.029c-0.01,1.348,0,3.128,0,5.518c0,7.101,0,9.167,0.034,9.581
			c0.117,1.406,0.349,2.304,0.814,3.277c0.896,1.883,2.624,3.277,4.645,3.81c0.703,0.166,1.467,0.267,2.463,0.313
			c0.429,0.019,4.717,0.025,9.021,0.025c4.292,0,8.579-0.008,8.999-0.008c1.143-0.066,1.807-0.166,2.561-0.338
			c2.035-0.525,3.73-1.92,4.627-3.814c0.465-0.949,0.697-1.861,0.812-3.223c0.021-0.299,0.03-4.949,0.03-9.625
			c0-4.668-0.012-9.334-0.034-9.618c-0.109-1.366-0.343-2.292-0.808-3.255c-0.397-0.798-0.83-1.396-1.461-1.993
			c-1.131-1.08-2.492-1.728-4.147-1.973c-0.794-0.109-0.937-0.147-5.017-0.154L17.362,0.5L17.362,0.5z"/>
	</g>
	<g>
		<defs>
			<circle id="SVGID_4_" cx="17.352" cy="17.5" r="16.653"/>
		</defs>
		<clipPath id="SVGID_5_">
			<use xlink:href="#SVGID_4_"  overflow="visible"/>
		</clipPath>
		
			<radialGradient id="SVGID_6_" cx="1140.1143" cy="290.9951" r="23.0529" gradientTransform="matrix(0.1283 0.6407 -2.6418 0.529 617.1146 -881.455)" gradientUnits="userSpaceOnUse">
			<stop  offset="0" style="stop-color:#376BB4"/>
			<stop  offset="0.128" style="stop-color:#376BB4"/>
			<stop  offset="1" style="stop-color:#4A469A;stop-opacity:0"/>
		</radialGradient>
		<path clip-path="url(#SVGID_5_)" fill="url(#SVGID_6_)" d="M17.362,0.5c-7.11,0-9.187,0.007-9.585,0.043
			C6.315,0.667,5.418,0.899,4.422,1.38C3.66,1.762,3.06,2.194,2.476,2.809C1.398,3.938,0.735,5.317,0.502,6.946
			c-0.117,0.796-0.15,0.962-0.15,5.029c-0.01,1.348,0,3.128,0,5.518c0,7.101,0,9.167,0.034,9.581
			c0.117,1.406,0.349,2.304,0.814,3.277c0.896,1.883,2.624,3.277,4.645,3.81c0.703,0.166,1.467,0.267,2.463,0.313
			c0.429,0.019,4.717,0.025,9.021,0.025c4.292,0,8.579-0.008,8.999-0.008c1.143-0.066,1.807-0.166,2.561-0.338
			c2.035-0.525,3.73-1.92,4.627-3.814c0.465-0.949,0.697-1.861,0.812-3.223c0.021-0.299,0.03-4.949,0.03-9.625
			c0-4.668-0.012-9.334-0.034-9.618c-0.109-1.366-0.343-2.292-0.808-3.255c-0.397-0.798-0.83-1.396-1.461-1.993
			c-1.131-1.08-2.492-1.728-4.147-1.973c-0.794-0.109-0.937-0.147-5.017-0.154L17.362,0.5L17.362,0.5z"/>
	</g>
</g>
<path fill="#FFFFFF" d="M17.5,7c-2.851,0-3.209,0.012-4.328,0.063c-1.118,0.05-1.885,0.226-2.551,0.49
	C9.932,7.82,9.347,8.179,8.763,8.763s-0.943,1.17-1.211,1.858c-0.264,0.667-0.44,1.433-0.49,2.55C7.011,14.291,7,14.649,7,17.5
	c0,2.852,0.011,3.203,0.062,4.328c0.051,1.123,0.227,1.885,0.49,2.545c0.268,0.693,0.626,1.285,1.211,1.863
	c0.583,0.591,1.169,0.943,1.857,1.211c0.667,0.265,1.433,0.434,2.551,0.49c1.119,0.045,1.478,0.063,4.328,0.063
	c2.851,0,3.204-0.019,4.328-0.063c1.11-0.058,1.886-0.227,2.546-0.49c0.693-0.268,1.271-0.62,1.863-1.211
	c0.576-0.578,0.943-1.17,1.211-1.863c0.264-0.66,0.433-1.422,0.49-2.545C27.982,20.703,28,20.352,28,17.5
	c0-2.851-0.018-3.209-0.063-4.329c-0.059-1.117-0.228-1.884-0.49-2.55c-0.268-0.688-0.635-1.274-1.211-1.858
	c-0.592-0.584-1.17-0.942-1.863-1.21c-0.661-0.264-1.436-0.44-2.546-0.49C20.702,7.012,20.352,7,17.5,7L17.5,7z M16.557,8.896
	c0.278-0.007,0.594,0,0.943,0c2.809,0,3.139,0.004,4.244,0.055C22.77,9,23.323,9.173,23.693,9.316
	c0.49,0.188,0.84,0.414,1.209,0.781c0.367,0.369,0.595,0.719,0.781,1.209c0.144,0.369,0.311,0.925,0.365,1.948
	c0.045,1.108,0.063,1.444,0.063,4.244c0,2.794-0.018,3.139-0.063,4.244c-0.056,1.023-0.223,1.578-0.365,1.947
	c-0.187,0.492-0.414,0.842-0.781,1.209c-0.369,0.355-0.719,0.595-1.209,0.781c-0.37,0.146-0.926,0.312-1.949,0.366
	c-1.105,0.045-1.438,0.05-4.244,0.05c-2.801,0-3.137-0.005-4.244-0.05c-1.025-0.056-1.579-0.224-1.949-0.366
	c-0.492-0.188-0.841-0.426-1.209-0.781c-0.363-0.369-0.595-0.719-0.782-1.209C9.172,23.322,9,22.768,8.95,21.743
	c-0.045-1.108-0.055-1.45-0.055-4.251c0-2.801,0.01-3.13,0.055-4.238C9,12.23,9.172,11.676,9.316,11.305
	c0.187-0.491,0.419-0.84,0.782-1.209c0.368-0.368,0.717-0.595,1.209-0.787c0.369-0.145,0.924-0.311,1.949-0.361
	c0.971-0.042,1.343-0.06,3.301-0.06V8.896z M23.102,10.639c-0.695,0-1.254,0.564-1.254,1.261c0,0.69,0.559,1.254,1.254,1.254
	c0.697,0,1.269-0.564,1.269-1.254C24.369,11.203,23.799,10.639,23.102,10.639L23.102,10.639z M17.5,12.107
	c-2.975,0-5.393,2.418-5.393,5.393c0,2.977,2.418,5.395,5.393,5.395c2.975,0,5.395-2.418,5.395-5.395
	C22.895,14.525,20.475,12.107,17.5,12.107L17.5,12.107z M17.5,14.002c1.932,0,3.505,1.569,3.505,3.498
	c0,1.932-1.573,3.505-3.505,3.505c-1.93,0-3.498-1.573-3.498-3.505C14.002,15.571,15.57,14.002,17.5,14.002z"/>
</svg>
