<?xml version="1.0" encoding="utf-8"?>
<!-- Generator: Adobe Illustrator 16.0.0, SVG Export Plug-In . SVG Version: 6.00 Build 0)  -->
<!DOCTYPE svg PUBLIC "-//W3C//DTD SVG 1.1//EN" "http://www.w3.org/Graphics/SVG/1.1/DTD/svg11.dtd">
<svg version="1.1" id="圖層_1" xmlns="http://www.w3.org/2000/svg" xmlns:xlink="http://www.w3.org/1999/xlink" x="0px" y="0px"
	 width="30" height="30" viewBox="0 0 35 35" enable-background="new 0 0 35 35" xml:space="preserve">
<circle fill="#50B233" cx="17.5" cy="17.5" r="16.653"/>
<g>
	<path fill="#FFFFFF" d="M22.192,14.27c-0.004-0.608-0.321-0.946-0.831-0.94c-0.504,0.006-0.808,0.354-0.811,0.959
		c-0.009,1.121-0.004,2.241-0.006,3.362c0,0.161-0.015,0.321-0.028,0.627c-0.192-0.224-0.301-0.34-0.396-0.464
		c-1.04-1.35-2.076-2.701-3.114-4.052c-0.254-0.33-0.575-0.529-0.997-0.397c-0.419,0.131-0.603,0.474-0.604,0.888
		c-0.008,2.165-0.008,4.328,0,6.491c0.002,0.355,0.145,0.66,0.491,0.823c0.61,0.288,1.188-0.146,1.195-0.922
		c0.015-1.057,0.005-2.117,0.005-3.178c0-0.203,0-0.408,0-0.612c0.204,0.093,0.303,0.201,0.394,0.316
		c1.036,1.334,2.07,2.668,3.103,4.004c0.256,0.335,0.55,0.581,1.01,0.424c0.45-0.151,0.593-0.49,0.593-0.93
		C22.193,18.537,22.199,16.403,22.192,14.27z"/>
	<path fill="#FFFFFF" d="M25.369,15.025c0.156-0.012,0.334-0.037,0.516-0.037c0.612-0.006,1.229,0.006,1.84-0.009
		c0.224-0.006,0.469-0.022,0.666-0.114c0.387-0.181,0.503-0.542,0.398-0.933c-0.103-0.398-0.398-0.605-0.817-0.606
		c-1.089-0.003-2.179-0.005-3.268-0.003c-0.781,0.002-1.094,0.304-1.096,1.082c-0.007,2.057-0.007,4.114,0,6.169
		c0.002,0.766,0.337,1.091,1.1,1.094c1.015,0.004,2.026,0.003,3.038-0.001c0.166-0.002,0.337-0.023,0.496-0.072
		c0.363-0.106,0.56-0.354,0.571-0.738c0.014-0.405-0.17-0.684-0.55-0.8c-0.204-0.063-0.425-0.078-0.635-0.079
		c-0.759-0.01-1.521-0.005-2.295-0.005c0-0.574,0-1.072,0-1.595c0.145-0.014,0.263-0.034,0.38-0.035
		c0.722-0.003,1.444,0.017,2.165-0.009c0.628-0.023,0.957-0.367,0.933-0.899c-0.021-0.478-0.371-0.772-0.945-0.784
		c-0.399-0.007-0.798,0-1.199-0.001c-1.49,0-1.49,0-1.351-1.493C25.318,15.126,25.339,15.099,25.369,15.025z"/>
	<path fill="#FFFFFF" d="M10.546,19.981c-0.167-0.02-0.336-0.009-0.504-0.009c-0.704,0-1.404,0-2.174,0c0-0.26,0-0.442,0-0.625
		c0-1.641,0.003-3.282-0.001-4.924c-0.003-0.7-0.313-1.09-0.843-1.094c-0.55-0.005-0.848,0.368-0.848,1.078
		c-0.001,2.086-0.003,4.171,0.002,6.259c0.003,0.663,0.325,0.988,0.99,1.001c0.596,0.01,2.836,0.02,3.357-0.008
		c0.508-0.028,0.862-0.404,0.854-0.85C11.372,20.383,11.034,20.039,10.546,19.981z"/>
	<path fill="#FFFFFF" d="M13.979,14.157c-0.005-0.633-0.206-0.833-0.816-0.834c-0.621-0.002-0.831,0.189-0.832,0.818
		c-0.008,2.226-0.008,4.451,0,6.677c0.001,0.625,0.228,0.849,0.815,0.85c0.604,0.003,0.83-0.23,0.833-0.882
		c0.003-1.09,0.001-2.179,0.001-3.269C13.98,16.397,13.982,15.277,13.979,14.157z"/>
</g>
</svg>
