<?xml version="1.0" encoding="utf-8"?>
<!-- Generator: Adobe Illustrator 16.0.0, SVG Export Plug-In . SVG Version: 6.00 Build 0)  -->
<!DOCTYPE svg PUBLIC "-//W3C//DTD SVG 1.1//EN" "http://www.w3.org/Graphics/SVG/1.1/DTD/svg11.dtd">
<svg version="1.1" id="圖層_1" xmlns="http://www.w3.org/2000/svg" xmlns:xlink="http://www.w3.org/1999/xlink" x="0px" y="0px"
	 width="30px" height="30px" viewBox="0 0 30 30" enable-background="new 0 0 30 30" xml:space="preserve">
<g id="圖層_1_1_">
	<circle fill="#2DB3E9" cx="15" cy="15" r="14.274"/>
	<g>
		<g>
			<path fill="#FFFFFF" d="M24.429,9.153c-0.702,0.309-1.446,0.511-2.228,0.612c0.801-0.479,1.41-1.233,1.702-2.137
				c-0.752,0.443-1.575,0.758-2.45,0.934c-0.715-0.755-1.727-1.222-2.828-1.222c-2.143,0-3.861,1.735-3.861,3.866
				c0,0.308,0.023,0.603,0.088,0.88c-3.213-0.157-6.058-1.694-7.969-4.042c-0.332,0.58-0.528,1.243-0.528,1.953
				c0,1.341,0.689,2.528,1.715,3.213c-0.619-0.01-1.23-0.191-1.746-0.475c0,0.014,0,0.027,0,0.042c0,1.883,1.341,3.44,3.1,3.798
				c-0.315,0.089-0.66,0.129-1.014,0.129c-0.248,0-0.498-0.019-0.734-0.067c0.503,1.532,1.923,2.659,3.613,2.696
				c-1.314,1.027-2.985,1.644-4.792,1.644c-0.317,0-0.621-0.013-0.925-0.053c1.712,1.104,3.743,1.737,5.93,1.737
				c7.117,0,11.003-5.894,11.003-11c0-0.174-0.003-0.339-0.016-0.501C23.26,10.615,23.904,9.935,24.429,9.153z"/>
		</g>
	</g>
</g>
</svg>
