<?xml version="1.0" encoding="utf-8"?>
<!-- Generator: Adobe Illustrator 16.0.0, SVG Export Plug-In . SVG Version: 6.00 Build 0)  -->
<!DOCTYPE svg PUBLIC "-//W3C//DTD SVG 1.1//EN" "http://www.w3.org/Graphics/SVG/1.1/DTD/svg11.dtd">
<svg version="1.1" id="圖層_1" xmlns="http://www.w3.org/2000/svg" xmlns:xlink="http://www.w3.org/1999/xlink" x="0px" y="0px"
	 width="70px" height="60px" viewBox="0 0 70 60" enable-background="new 0 0 70 60" xml:space="preserve">
<path fill="none" stroke="#bbbbbb" stroke-width="3" stroke-linecap="round" stroke-miterlimit="10" d="M62.063,47.158
	c0,2.675-2.26,4.842-5.047,4.842H13.484c-2.787,0-5.047-2.167-5.047-4.842V14.966c0-2.673,2.26-4.841,5.047-4.841h43.532
	c2.786,0,5.047,2.168,5.047,4.841V47.158L62.063,47.158z"/>
<circle fill="none" stroke="#bbbbbb" stroke-width="2.2" stroke-linecap="round" stroke-miterlimit="10" cx="31" cy="24.939" r="4.25"/>
<path fill="none" stroke="#bbbbbb" stroke-width="3" stroke-linecap="round" stroke-miterlimit="10" d="M9.75,42.5
	c0,0,11.896-10,13.625-10c1.479,0,10.125,8.688,11.875,8.688S46.75,26,49.625,26c2.25,0,12.438,15.334,12.438,15.334"/>
</svg>
